{
  "asset": {
    "version": "2.0",
    "generator": "THREE.GLTFExporter"
  },
  "scenes": [
    {
      "nodes": [
        4,
        7
      ],
      "name": "Scene"
    }
  ],
  "scene": 0,
  "nodes": [
    {
      "matrix": [
        1.1038570058019559e-16,
        0,
        0.497133,
        0,
        0,
        2.642017,
        0,
        0,
        -3.766803,
        0,
        8.363982839654227e-16,
        0,
        -0.090835,
        2.431983,
        0.063804,
        1
      ],
      "name": "005_Pod_Boogies_Curves"
    },
    {
      "matrix": [
        1.1038570058019559e-16,
        0,
        0.497133,
        0,
        0,
        2.642017,
        0,
        0,
        -3.766803,
        0,
        8.363982839654227e-16,
        0,
        -0.090835,
        2.431983,
        0.063804,
        1
      ],
      "name": "005_Pod_Sled_Curves"
    },
    {
      "matrix": [
        1.1038570058019559e-16,
        0,
        0.497133,
        0,
        0,
        2.642017,
        0,
        0,
        -3.766803,
        0,
        8.363982839654227e-16,
        0,
        -0.090835,
        2.431983,
        0.063804,
        1
      ],
      "name": "005_Pod_Boogies",
      "mesh": 1
    },
    {
      "matrix": [
        5.894773558168254e-17,
        0,
        -0.265477,
        0,
        0,
        0.378499,
        0,
        0,
        2.011535,
        0,
        4.466504943678728e-16,
        0,
        0.007627,
        -0.920502,
        -0.024115,
        1
      ],
      "name": "005_Pod_Sled",
      "mesh": 0,
      "children": [
        0,
        1,
        2
      ]
    },
    {
      "name": "190701_HLO_Global_LK07.glb",
      "children": [
        3
      ]
    },
    {
      "name": "005_Pod_Boogies_Curves",
      "mesh": 2
    },
    {
      "name": "005_Pod_Sled_Curves",
      "mesh": 3
    },
    {
      "name": "190701_HLO_Global_LK07curves2.obj",
      "children": [
        5,
        6
      ]
    }
  ],
  "bufferViews": [
    {
      "buffer": 0,
      "byteOffset": 0,
      "byteLength": 21276,
      "target": 34962,
      "byteStride": 12
    },
    {
      "buffer": 0,
      "byteOffset": 21276,
      "byteLength": 14184,
      "target": 34962,
      "byteStride": 8
    },
    {
      "buffer": 0,
      "byteOffset": 35460,
      "byteLength": 6972,
      "target": 34963
    },
    {
      "buffer": 0,
      "byteOffset": 42432,
      "byteLength": 21432,
      "target": 34962,
      "byteStride": 12
    },
    {
      "buffer": 0,
      "byteOffset": 63864,
      "byteLength": 14288,
      "target": 34962,
      "byteStride": 8
    },
    {
      "buffer": 0,
      "byteOffset": 78152,
      "byteLength": 6720,
      "target": 34963
    },
    {
      "buffer": 0,
      "byteOffset": 84872,
      "byteLength": 17088,
      "target": 34962,
      "byteStride": 12
    },
    {
      "buffer": 0,
      "byteOffset": 101960,
      "byteLength": 17088,
      "target": 34962,
      "byteStride": 12
    },
    {
      "buffer": 0,
      "byteOffset": 119048,
      "byteLength": 21408,
      "target": 34962,
      "byteStride": 12
    },
    {
      "buffer": 0,
      "byteOffset": 140456,
      "byteLength": 21408,
      "target": 34962,
      "byteStride": 12
    }
  ],
  "buffers": [
    {
      "byteLength": 161864,
      "uri": "data:application/octet-stream;base64,"
    }
  ],
  "accessors": [
    {
      "bufferView": 0,
      "componentType": 5126,
      "count": 1773,
      "max": [
        4.359238147735596,
        0.8590649962425232,
        1.0111379623413086
      ],
      "min": [
        -4.359238147735596,
        -1.2204960584640503,
        -1.7029869556427002
      ],
      "type": "VEC3"
    },
    {
      "bufferView": 1,
      "componentType": 5126,
      "count": 1773,
      "max": [
        1,
        1
      ],
      "min": [
        0,
        0
      ],
      "type": "VEC2"
    },
    {
      "bufferView": 2,
      "componentType": 5123,
      "count": 3486,
      "max": [
        1772
      ],
      "min": [
        0
      ],
      "type": "SCALAR"
    },
    {
      "bufferView": 3,
      "componentType": 5126,
      "count": 1786,
      "max": [
        2.3947219848632812,
        -0.5375750064849854,
        1.346992015838623
      ],
      "min": [
        -2.6514089107513428,
        -0.9617310166358948,
        -1.3952209949493408
      ],
      "type": "VEC3"
    },
    {
      "bufferView": 4,
      "componentType": 5126,
      "count": 1786,
      "max": [
        1,
        1
      ],
      "min": [
        0,
        0
      ],
      "type": "VEC2"
    },
    {
      "bufferView": 5,
      "componentType": 5123,
      "count": 3360,
      "max": [
        1785
      ],
      "min": [
        0
      ],
      "type": "SCALAR"
    },
    {
      "bufferView": 6,
      "componentType": 5126,
      "count": 1424,
      "max": [
        2.530694007873535,
        -0.5375750064849854,
        1.346992015838623
      ],
      "min": [
        -2.5154380798339844,
        -0.9617310166358948,
        -1.3952209949493408
      ],
      "type": "VEC3"
    },
    {
      "bufferView": 7,
      "componentType": 5126,
      "count": 1424,
      "max": [
        1,
        1,
        1
      ],
      "min": [
        -0.9972259402275085,
        -1,
        -1
      ],
      "type": "VEC3"
    },
    {
      "bufferView": 8,
      "componentType": 5126,
      "count": 1784,
      "max": [
        2.041567087173462,
        -0.595346987247467,
        1.1331629753112793
      ],
      "min": [
        -3.4179909229278564,
        -1.382459044456482,
        -1.181391954421997
      ],
      "type": "VEC3"
    },
    {
      "bufferView": 9,
      "componentType": 5126,
      "count": 1784,
      "max": [
        1,
        1,
        1
      ],
      "min": [
        -1,
        -0.9999535083770752,
        -1
      ],
      "type": "VEC3"
    }
  ],
  "materials": [
    {
      "pbrMetallicRoughness": {
        "metallicFactor": 0,
        "roughnessFactor": 0.9,
        "baseColorTexture": {
          "index": 0
        }
      },
      "extensions": {
        "KHR_materials_unlit": {}
      }
    },
    {
      "pbrMetallicRoughness": {
        "metallicFactor": 0,
        "roughnessFactor": 0.9,
        "baseColorTexture": {
          "index": 1
        }
      },
      "extensions": {
        "KHR_materials_unlit": {}
      }
    },
    {
      "pbrMetallicRoughness": {
        "baseColorFactor": [
          0.6627450980392157,
          0.6627450980392157,
          0.6627450980392157,
          1
        ],
        "metallicFactor": 0.5,
        "roughnessFactor": 0.5
      },
      "doubleSided": true
    },
    {
      "pbrMetallicRoughness": {
        "baseColorFactor": [
          0.6627450980392157,
          0.6627450980392157,
          0.6627450980392157,
          1
        ],
        "metallicFactor": 0.5,
        "roughnessFactor": 0.5
      }
    }
  ],
  "textures": [
    {
      "sampler": 0,
      "source": 0
    },
    {
      "sampler": 1,
      "source": 1
    }
  ],
  "samplers": [
    {
      "magFilter": 9729,
      "minFilter": 9987,
      "wrapS": 10497,
      "wrapT": 10497
    },
    {
      "magFilter": 9729,
      "minFilter": 9987,
      "wrapS": 10497,
      "wrapT": 10497
    }
  ],
  "images": [
    {
      "mimeType": "image/jpeg",
      "uri": "data:image/jpeg;base64,"
    },
    {
      "mimeType": "image/jpeg",
      "uri": "data:image/jpeg;base64,"
    }
  ],
  "meshes": [
    {
      "primitives": [
        {
          "mode": 4,
          "attributes": {
            "POSITION": 0,
            "TEXCOORD_0": 1
          },
          "indices": 2,
          "material": 0
        }
      ]
    },
    {
      "primitives": [
        {
          "mode": 4,
          "attributes": {
            "POSITION": 3,
            "TEXCOORD_0": 4
          },
          "indices": 5,
          "material": 1
        }
      ]
    },
    {
      "primitives": [
        {
          "mode": 1,
          "attributes": {
            "POSITION": 6,
            "NORMAL": 7
          },
          "material": 2
        }
      ]
    },
    {
      "primitives": [
        {
          "mode": 1,
          "attributes": {
            "POSITION": 8,
            "NORMAL": 9
          },
          "material": 3
        }
      ]
    }
  ],
  "extensionsUsed": [
    "KHR_materials_unlit"
  ]
}