{
  "asset": {
    "version": "2.0",
    "generator": "THREE.GLTFExporter"
  },
  "scenes": [
    {
      "nodes": [
        6
      ],
      "name": "Scene"
    }
  ],
  "scene": 0,
  "nodes": [
    {
      "name": "001_Pod_Top_Curves",
      "extras": {
        "name": "001_Pod_Top_Curves"
      },
      "mesh": 0
    },
    {
      "name": "190701_HLO_Global_LK07curves2obj",
      "extras": {
        "name": "190701_HLO_Global_LK07curves2.obj"
      },
      "children": [
        0
      ]
    },
    {
      "name": "006_Rail_Bolts",
      "extras": {
        "name": "006_Rail_Bolts"
      },
      "mesh": 1
    },
    {
      "name": "001_Pod_Top_Curves",
      "extras": {
        "name": "001_Pod_Top_Curves"
      }
    },
    {
      "name": "001_Pod_Top",
      "extras": {
        "name": "001_Pod_Top"
      },
      "mesh": 2,
      "children": [
        3
      ]
    },
    {
      "name": "190701_HLO_Global_LK07glb",
      "extras": {
        "name": "190701_HLO_Global_LK07.glb"
      },
      "children": [
        2,
        4
      ]
    },
    {
      "name": "HLO_Pod_Top.gltf",
      "children": [
        1,
        5
      ]
    }
  ],
  "bufferViews": [
    {
      "buffer": 0,
      "byteOffset": 0,
      "byteLength": 4800,
      "target": 34962,
      "byteStride": 12
    },
    {
      "buffer": 0,
      "byteOffset": 4800,
      "byteLength": 4800,
      "target": 34962,
      "byteStride": 12
    },
    {
      "buffer": 0,
      "byteOffset": 9600,
      "byteLength": 1296,
      "target": 34962,
      "byteStride": 12
    },
    {
      "buffer": 0,
      "byteOffset": 10896,
      "byteLength": 504,
      "target": 34963
    },
    {
      "buffer": 0,
      "byteOffset": 11400,
      "byteLength": 5664,
      "target": 34962,
      "byteStride": 12
    },
    {
      "buffer": 0,
      "byteOffset": 17064,
      "byteLength": 3776,
      "target": 34962,
      "byteStride": 8
    },
    {
      "buffer": 0,
      "byteOffset": 20840,
      "byteLength": 5256,
      "target": 34963
    }
  ],
  "buffers": [
    {
      "byteLength": 26096,
      "uri": "data:application/octet-stream;base64,"
    }
  ],
  "accessors": [
    {
      "bufferView": 0,
      "componentType": 5126,
      "count": 400,
      "max": [
        4.687582969665527,
        1.2243479490280151,
        1.4495879411697388
      ],
      "min": [
        -4.418324947357178,
        -0.45823198556900024,
        -1.4495869874954224
      ],
      "type": "VEC3"
    },
    {
      "bufferView": 1,
      "componentType": 5126,
      "count": 400,
      "max": [
        1,
        0.999999463558197,
        0
      ],
      "min": [
        -0.0010440004989504814,
        -0.999999463558197,
        -0.000022000011085765436
      ],
      "type": "VEC3"
    },
    {
      "bufferView": 2,
      "componentType": 5126,
      "count": 108,
      "max": [
        0.31825199723243713,
        -1.1683529615402222,
        0.040463998913764954
      ],
      "min": [
        0.15528100728988647,
        -1.3103890419006348,
        -0.04188600182533264
      ],
      "type": "VEC3"
    },
    {
      "bufferView": 3,
      "componentType": 5123,
      "count": 252,
      "max": [
        107
      ],
      "min": [
        0
      ],
      "type": "SCALAR"
    },
    {
      "bufferView": 4,
      "componentType": 5126,
      "count": 472,
      "max": [
        4.677036762237549,
        1.2228929996490479,
        1.448362946510315
      ],
      "min": [
        -4.550196170806885,
        -0.4572010040283203,
        -1.448364019393921
      ],
      "type": "VEC3"
    },
    {
      "bufferView": 5,
      "componentType": 5126,
      "count": 472,
      "max": [
        0.904662013053894,
        0.999904990196228
      ],
      "min": [
        0.00009500000305706635,
        0.00009500000305706635
      ],
      "type": "VEC2"
    },
    {
      "bufferView": 6,
      "componentType": 5123,
      "count": 2628,
      "max": [
        471
      ],
      "min": [
        0
      ],
      "type": "SCALAR"
    }
  ],
  "materials": [
    {
      "pbrMetallicRoughness": {
        "baseColorFactor": [
          0.6627450980392157,
          0.6627450980392157,
          0.6627450980392157,
          1
        ],
        "metallicFactor": 0.5,
        "roughnessFactor": 0.5
      }
    },
    {
      "pbrMetallicRoughness": {
        "metallicFactor": 1,
        "roughnessFactor": 1
      },
      "doubleSided": true,
      "name": "Material.018"
    },
    {
      "pbrMetallicRoughness": {
        "metallicFactor": 0,
        "roughnessFactor": 0.9,
        "baseColorTexture": {
          "index": 0
        }
      },
      "extensions": {
        "KHR_materials_unlit": {}
      },
      "doubleSided": true
    }
  ],
  "meshes": [
    {
      "primitives": [
        {
          "mode": 1,
          "attributes": {
            "POSITION": 0,
            "NORMAL": 1
          },
          "material": 0
        }
      ]
    },
    {
      "primitives": [
        {
          "mode": 4,
          "attributes": {
            "POSITION": 2
          },
          "indices": 3,
          "material": 1
        }
      ]
    },
    {
      "primitives": [
        {
          "mode": 4,
          "attributes": {
            "POSITION": 4,
            "TEXCOORD_0": 5
          },
          "indices": 6,
          "material": 2
        }
      ]
    }
  ],
  "textures": [
    {
      "sampler": 0,
      "source": 0
    }
  ],
  "samplers": [
    {
      "magFilter": 9729,
      "minFilter": 9987,
      "wrapS": 10497,
      "wrapT": 10497
    }
  ],
  "images": [
    {
      "mimeType": "image/jpeg",
      "uri": "data:image/jpeg;base64,"
    }
  ],
  "extensionsUsed": [
    "KHR_materials_unlit"
  ]
}