{
  "asset": {
    "version": "2.0",
    "generator": "THREE.GLTFExporter"
  },
  "scenes": [
    {
      "nodes": [
        6,
        20
      ],
      "name": "Scene"
    }
  ],
  "scene": 0,
  "nodes": [
    {
      "name": "004_Pod_Bottom_Rear_Curves",
      "mesh": 0
    },
    {
      "name": "003_Pod_Bottom_Front_Curves",
      "mesh": 1
    },
    {
      "name": "002_Pod_Bottom_Center_Curves",
      "mesh": 2
    },
    {
      "name": "001_Pod_Top_Curves",
      "mesh": 3
    },
    {
      "name": "005_Pod_Boogies_Curves",
      "mesh": 4
    },
    {
      "name": "005_Pod_Sled_Curves",
      "mesh": 5
    },
    {
      "name": "190701_HLO_Global_LK07curves2.obj",
      "children": [
        0,
        1,
        2,
        3,
        4,
        5
      ]
    },
    {
      "name": "006_Rail_Bolts",
      "mesh": 6
    },
    {
      "matrix": [
        4.742099,
        0,
        0,
        0,
        0,
        2.220446049250313e-16,
        1,
        0,
        0,
        -1.432804,
        3.1814639811500455e-16,
        0,
        0.096401,
        -0.117823,
        -0.906176,
        1
      ],
      "name": "004_Pod_Bottom_Rear_Curves"
    },
    {
      "name": "004_Pod_Bottom_Rear",
      "mesh": 7,
      "children": [
        8
      ]
    },
    {
      "name": "003_Pod_Bottom_Front_Curves"
    },
    {
      "name": "003_Pod_Bottom_Front",
      "mesh": 8,
      "children": [
        10
      ]
    },
    {
      "name": "002_Pod_Bottom_Center_Curves"
    },
    {
      "name": "002_Pod_Bottom_Center",
      "mesh": 9,
      "children": [
        12
      ]
    },
    {
      "name": "001_Pod_Top_Curves"
    },
    {
      "name": "001_Pod_Top",
      "mesh": 10,
      "children": [
        14
      ]
    },
    {
      "matrix": [
        -6.598870879549534e-8,
        0,
        0.49713299999999117,
        0,
        0,
        2.642017,
        0,
        0,
        -3.7668030000000656,
        0,
        -4.999999321248177e-7,
        0,
        -0.090835,
        2.431983,
        0.063804,
        1
      ],
      "name": "005_Pod_Boogies_Curves"
    },
    {
      "matrix": [
        -6.598870879549534e-8,
        0,
        0.49713299999999117,
        0,
        0,
        2.642017,
        0,
        0,
        -3.7668030000000656,
        0,
        -4.999999321248177e-7,
        0,
        -0.090835,
        2.431983,
        0.063804,
        1
      ],
      "name": "005_Pod_Sled_Curves"
    },
    {
      "matrix": [
        -6.598870879549534e-8,
        0,
        0.49713299999999117,
        0,
        0,
        2.642017,
        0,
        0,
        -3.7668030000000656,
        0,
        -4.999999321248177e-7,
        0,
        -0.090835,
        2.431983,
        0.063804,
        1
      ],
      "name": "005_Pod_Boogies",
      "mesh": 12
    },
    {
      "matrix": [
        5.894773558168254e-17,
        0,
        -0.265477,
        0,
        0,
        0.378499,
        0,
        0,
        2.011535,
        0,
        4.466504943678728e-16,
        0,
        0.007627,
        -0.920502,
        -0.024115,
        1
      ],
      "name": "005_Pod_Sled",
      "mesh": 11,
      "children": [
        16,
        17,
        18
      ]
    },
    {
      "name": "190701_HLO_Global_LK07.glb",
      "children": [
        7,
        9,
        11,
        13,
        15,
        19
      ]
    }
  ],
  "bufferViews": [
    {
      "buffer": 0,
      "byteOffset": 0,
      "byteLength": 1920,
      "target": 34962,
      "byteStride": 12
    },
    {
      "buffer": 0,
      "byteOffset": 1920,
      "byteLength": 1920,
      "target": 34962,
      "byteStride": 12
    },
    {
      "buffer": 0,
      "byteOffset": 3840,
      "byteLength": 2160,
      "target": 34962,
      "byteStride": 12
    },
    {
      "buffer": 0,
      "byteOffset": 6000,
      "byteLength": 2160,
      "target": 34962,
      "byteStride": 12
    },
    {
      "buffer": 0,
      "byteOffset": 8160,
      "byteLength": 4248,
      "target": 34962,
      "byteStride": 12
    },
    {
      "buffer": 0,
      "byteOffset": 12408,
      "byteLength": 4248,
      "target": 34962,
      "byteStride": 12
    },
    {
      "buffer": 0,
      "byteOffset": 16656,
      "byteLength": 4800,
      "target": 34962,
      "byteStride": 12
    },
    {
      "buffer": 0,
      "byteOffset": 21456,
      "byteLength": 4800,
      "target": 34962,
      "byteStride": 12
    },
    {
      "buffer": 0,
      "byteOffset": 26256,
      "byteLength": 17088,
      "target": 34962,
      "byteStride": 12
    },
    {
      "buffer": 0,
      "byteOffset": 43344,
      "byteLength": 17088,
      "target": 34962,
      "byteStride": 12
    },
    {
      "buffer": 0,
      "byteOffset": 60432,
      "byteLength": 21408,
      "target": 34962,
      "byteStride": 12
    },
    {
      "buffer": 0,
      "byteOffset": 81840,
      "byteLength": 21408,
      "target": 34962,
      "byteStride": 12
    },
    {
      "buffer": 0,
      "byteOffset": 103248,
      "byteLength": 1296,
      "target": 34962,
      "byteStride": 12
    },
    {
      "buffer": 0,
      "byteOffset": 104544,
      "byteLength": 504,
      "target": 34963
    },
    {
      "buffer": 0,
      "byteOffset": 105048,
      "byteLength": 3504,
      "target": 34962,
      "byteStride": 12
    },
    {
      "buffer": 0,
      "byteOffset": 108552,
      "byteLength": 2336,
      "target": 34962,
      "byteStride": 8
    },
    {
      "buffer": 0,
      "byteOffset": 110888,
      "byteLength": 3012,
      "target": 34963
    },
    {
      "buffer": 0,
      "byteOffset": 113900,
      "byteLength": 8028,
      "target": 34962,
      "byteStride": 12
    },
    {
      "buffer": 0,
      "byteOffset": 121928,
      "byteLength": 5352,
      "target": 34962,
      "byteStride": 8
    },
    {
      "buffer": 0,
      "byteOffset": 127280,
      "byteLength": 7452,
      "target": 34963
    },
    {
      "buffer": 0,
      "byteOffset": 134732,
      "byteLength": 2796,
      "target": 34962,
      "byteStride": 12
    },
    {
      "buffer": 0,
      "byteOffset": 137528,
      "byteLength": 1864,
      "target": 34962,
      "byteStride": 8
    },
    {
      "buffer": 0,
      "byteOffset": 139392,
      "byteLength": 1728,
      "target": 34963
    },
    {
      "buffer": 0,
      "byteOffset": 141120,
      "byteLength": 5664,
      "target": 34962,
      "byteStride": 12
    },
    {
      "buffer": 0,
      "byteOffset": 146784,
      "byteLength": 3776,
      "target": 34962,
      "byteStride": 8
    },
    {
      "buffer": 0,
      "byteOffset": 150560,
      "byteLength": 5256,
      "target": 34963
    },
    {
      "buffer": 0,
      "byteOffset": 155816,
      "byteLength": 21276,
      "target": 34962,
      "byteStride": 12
    },
    {
      "buffer": 0,
      "byteOffset": 177092,
      "byteLength": 14184,
      "target": 34962,
      "byteStride": 8
    },
    {
      "buffer": 0,
      "byteOffset": 191276,
      "byteLength": 6972,
      "target": 34963
    },
    {
      "buffer": 0,
      "byteOffset": 198248,
      "byteLength": 21432,
      "target": 34962,
      "byteStride": 12
    },
    {
      "buffer": 0,
      "byteOffset": 219680,
      "byteLength": 14288,
      "target": 34962,
      "byteStride": 8
    },
    {
      "buffer": 0,
      "byteOffset": 233968,
      "byteLength": 6720,
      "target": 34963
    }
  ],
  "buffers": [
    {
      "byteLength": 240688,
      "uri": "data:application/octet-stream;base64,"
    }
  ],
  "accessors": [
    {
      "bufferView": 0,
      "componentType": 5126,
      "count": 160,
      "max": [
        -2.388223886489868,
        -0.4483419954776764,
        1.4382330179214478
      ],
      "min": [
        -3.702831983566284,
        -1.4464770555496216,
        -1.4382330179214478
      ],
      "type": "VEC3"
    },
    {
      "bufferView": 1,
      "componentType": 5126,
      "count": 160,
      "max": [
        1,
        0,
        0
      ],
      "min": [
        1,
        0,
        0
      ],
      "type": "VEC3"
    },
    {
      "bufferView": 2,
      "componentType": 5126,
      "count": 180,
      "max": [
        4.677036762237549,
        -0.454679012298584,
        1.4435030221939087
      ],
      "min": [
        2.358419895172119,
        -1.4483779668807983,
        -1.4435030221939087
      ],
      "type": "VEC3"
    },
    {
      "bufferView": 3,
      "componentType": 5126,
      "count": 180,
      "max": [
        1,
        0,
        0
      ],
      "min": [
        1,
        0,
        0
      ],
      "type": "VEC3"
    },
    {
      "bufferView": 4,
      "componentType": 5126,
      "count": 354,
      "max": [
        2.361067056655884,
        -0.4497169852256775,
        1.4433209896087646
      ],
      "min": [
        -2.388482093811035,
        -1.4483779668807983,
        -1.4433209896087646
      ],
      "type": "VEC3"
    },
    {
      "bufferView": 5,
      "componentType": 5126,
      "count": 354,
      "max": [
        1,
        0,
        0
      ],
      "min": [
        0.08491098880767822,
        -0.9125948548316956,
        -0.39995095133781433
      ],
      "type": "VEC3"
    },
    {
      "bufferView": 6,
      "componentType": 5126,
      "count": 400,
      "max": [
        4.687582969665527,
        1.2243479490280151,
        1.4495879411697388
      ],
      "min": [
        -4.418324947357178,
        -0.45823198556900024,
        -1.4495869874954224
      ],
      "type": "VEC3"
    },
    {
      "bufferView": 7,
      "componentType": 5126,
      "count": 400,
      "max": [
        1,
        0.999999463558197,
        0
      ],
      "min": [
        -0.0010440004989504814,
        -0.999999463558197,
        -0.000022000011085765436
      ],
      "type": "VEC3"
    },
    {
      "bufferView": 8,
      "componentType": 5126,
      "count": 1424,
      "max": [
        2.530694007873535,
        -0.5375750064849854,
        1.346992015838623
      ],
      "min": [
        -2.5154380798339844,
        -0.9617310166358948,
        -1.3952209949493408
      ],
      "type": "VEC3"
    },
    {
      "bufferView": 9,
      "componentType": 5126,
      "count": 1424,
      "max": [
        1,
        1,
        1
      ],
      "min": [
        -0.9972259402275085,
        -1,
        -1
      ],
      "type": "VEC3"
    },
    {
      "bufferView": 10,
      "componentType": 5126,
      "count": 1784,
      "max": [
        2.041567087173462,
        -0.595346987247467,
        1.1331629753112793
      ],
      "min": [
        -3.4179909229278564,
        -1.382459044456482,
        -1.181391954421997
      ],
      "type": "VEC3"
    },
    {
      "bufferView": 11,
      "componentType": 5126,
      "count": 1784,
      "max": [
        1,
        1,
        1
      ],
      "min": [
        -1,
        -0.9999535083770752,
        -1
      ],
      "type": "VEC3"
    },
    {
      "bufferView": 12,
      "componentType": 5126,
      "count": 108,
      "max": [
        0.31825199723243713,
        -1.1683529615402222,
        0.040463998913764954
      ],
      "min": [
        0.15528100728988647,
        -1.3103890419006348,
        -0.04188600182533264
      ],
      "type": "VEC3"
    },
    {
      "bufferView": 13,
      "componentType": 5123,
      "count": 252,
      "max": [
        107
      ],
      "min": [
        0
      ],
      "type": "SCALAR"
    },
    {
      "bufferView": 14,
      "componentType": 5126,
      "count": 292,
      "max": [
        -2.3882229328155518,
        -0.4483419954776764,
        1.4382330179214478
      ],
      "min": [
        -3.702831983566284,
        -1.4464770555496216,
        -1.4382330179214478
      ],
      "type": "VEC3"
    },
    {
      "bufferView": 15,
      "componentType": 5126,
      "count": 292,
      "max": [
        0.36368200182914734,
        0.9999399781227112
      ],
      "min": [
        0.00005999999848427251,
        0.00005999999848427251
      ],
      "type": "VEC2"
    },
    {
      "bufferView": 16,
      "componentType": 5123,
      "count": 1506,
      "max": [
        291
      ],
      "min": [
        0
      ],
      "type": "SCALAR"
    },
    {
      "bufferView": 17,
      "componentType": 5126,
      "count": 669,
      "max": [
        4.770930767059326,
        -0.454679012298584,
        1.4435030221939087
      ],
      "min": [
        2.3584210872650146,
        -1.448462963104248,
        -1.4435030221939087
      ],
      "type": "VEC3"
    },
    {
      "bufferView": 18,
      "componentType": 5126,
      "count": 669,
      "max": [
        0.2507709860801697,
        0.9999499917030334
      ],
      "min": [
        0.00004999999873689376,
        0.00004999999873689376
      ],
      "type": "VEC2"
    },
    {
      "bufferView": 19,
      "componentType": 5123,
      "count": 3726,
      "max": [
        668
      ],
      "min": [
        0
      ],
      "type": "SCALAR"
    },
    {
      "bufferView": 20,
      "componentType": 5126,
      "count": 233,
      "max": [
        2.361067056655884,
        -0.4497169852256775,
        1.4433200359344482
      ],
      "min": [
        -2.388482093811035,
        -1.448377013206482,
        -1.4433209896087646
      ],
      "type": "VEC3"
    },
    {
      "bufferView": 21,
      "componentType": 5126,
      "count": 233,
      "max": [
        0.2502810060977936,
        0.9999499917030334
      ],
      "min": [
        0.00004999999873689376,
        0.00004999999873689376
      ],
      "type": "VEC2"
    },
    {
      "bufferView": 22,
      "componentType": 5123,
      "count": 864,
      "max": [
        232
      ],
      "min": [
        0
      ],
      "type": "SCALAR"
    },
    {
      "bufferView": 23,
      "componentType": 5126,
      "count": 472,
      "max": [
        4.677036762237549,
        1.2228929996490479,
        1.448362946510315
      ],
      "min": [
        -4.550196170806885,
        -0.4572010040283203,
        -1.448364019393921
      ],
      "type": "VEC3"
    },
    {
      "bufferView": 24,
      "componentType": 5126,
      "count": 472,
      "max": [
        0.904662013053894,
        0.999904990196228
      ],
      "min": [
        0.00009500000305706635,
        0.00009500000305706635
      ],
      "type": "VEC2"
    },
    {
      "bufferView": 25,
      "componentType": 5123,
      "count": 2628,
      "max": [
        471
      ],
      "min": [
        0
      ],
      "type": "SCALAR"
    },
    {
      "bufferView": 26,
      "componentType": 5126,
      "count": 1773,
      "max": [
        4.359238147735596,
        0.8590649962425232,
        1.0111379623413086
      ],
      "min": [
        -4.359238147735596,
        -1.2204960584640503,
        -1.7029869556427002
      ],
      "type": "VEC3"
    },
    {
      "bufferView": 27,
      "componentType": 5126,
      "count": 1773,
      "max": [
        1,
        1
      ],
      "min": [
        0,
        0
      ],
      "type": "VEC2"
    },
    {
      "bufferView": 28,
      "componentType": 5123,
      "count": 3486,
      "max": [
        1772
      ],
      "min": [
        0
      ],
      "type": "SCALAR"
    },
    {
      "bufferView": 29,
      "componentType": 5126,
      "count": 1786,
      "max": [
        2.3947219848632812,
        -0.5375750064849854,
        1.346992015838623
      ],
      "min": [
        -2.6514089107513428,
        -0.9617310166358948,
        -1.3952209949493408
      ],
      "type": "VEC3"
    },
    {
      "bufferView": 30,
      "componentType": 5126,
      "count": 1786,
      "max": [
        1,
        1
      ],
      "min": [
        0,
        0
      ],
      "type": "VEC2"
    },
    {
      "bufferView": 31,
      "componentType": 5123,
      "count": 3360,
      "max": [
        1785
      ],
      "min": [
        0
      ],
      "type": "SCALAR"
    }
  ],
  "materials": [
    {
      "pbrMetallicRoughness": {
        "baseColorFactor": [
          0.6627450980392157,
          0.6627450980392157,
          0.6627450980392157,
          1
        ],
        "metallicFactor": 0.5,
        "roughnessFactor": 0.5
      }
    },
    {
      "pbrMetallicRoughness": {
        "baseColorFactor": [
          0.6627450980392157,
          0.6627450980392157,
          0.6627450980392157,
          1
        ],
        "metallicFactor": 0.5,
        "roughnessFactor": 0.5
      }
    },
    {
      "pbrMetallicRoughness": {
        "baseColorFactor": [
          0.6627450980392157,
          0.6627450980392157,
          0.6627450980392157,
          1
        ],
        "metallicFactor": 0.5,
        "roughnessFactor": 0.5
      }
    },
    {
      "pbrMetallicRoughness": {
        "baseColorFactor": [
          0.6627450980392157,
          0.6627450980392157,
          0.6627450980392157,
          1
        ],
        "metallicFactor": 0.5,
        "roughnessFactor": 0.5
      }
    },
    {
      "pbrMetallicRoughness": {
        "baseColorFactor": [
          0.6627450980392157,
          0.6627450980392157,
          0.6627450980392157,
          1
        ],
        "metallicFactor": 0.5,
        "roughnessFactor": 0.5
      },
      "doubleSided": true
    },
    {
      "pbrMetallicRoughness": {
        "baseColorFactor": [
          0.6627450980392157,
          0.6627450980392157,
          0.6627450980392157,
          1
        ],
        "metallicFactor": 0.5,
        "roughnessFactor": 0.5
      }
    },
    {
      "pbrMetallicRoughness": {
        "metallicFactor": 1,
        "roughnessFactor": 1
      },
      "doubleSided": true,
      "name": "Material.018"
    },
    {
      "pbrMetallicRoughness": {
        "metallicFactor": 0,
        "roughnessFactor": 0.9,
        "baseColorTexture": {
          "index": 0
        }
      },
      "extensions": {
        "KHR_materials_unlit": {}
      },
      "doubleSided": true
    },
    {
      "pbrMetallicRoughness": {
        "metallicFactor": 0,
        "roughnessFactor": 0.9,
        "baseColorTexture": {
          "index": 1
        }
      },
      "extensions": {
        "KHR_materials_unlit": {}
      },
      "doubleSided": true
    },
    {
      "pbrMetallicRoughness": {
        "metallicFactor": 0,
        "roughnessFactor": 0.9,
        "baseColorTexture": {
          "index": 2
        }
      },
      "extensions": {
        "KHR_materials_unlit": {}
      },
      "doubleSided": true
    },
    {
      "pbrMetallicRoughness": {
        "metallicFactor": 0,
        "roughnessFactor": 0.9,
        "baseColorTexture": {
          "index": 3
        }
      },
      "extensions": {
        "KHR_materials_unlit": {}
      },
      "doubleSided": true
    },
    {
      "pbrMetallicRoughness": {
        "metallicFactor": 0,
        "roughnessFactor": 0.9,
        "baseColorTexture": {
          "index": 4
        }
      },
      "extensions": {
        "KHR_materials_unlit": {}
      }
    },
    {
      "pbrMetallicRoughness": {
        "metallicFactor": 0,
        "roughnessFactor": 0.9,
        "baseColorTexture": {
          "index": 5
        }
      },
      "extensions": {
        "KHR_materials_unlit": {}
      }
    }
  ],
  "meshes": [
    {
      "primitives": [
        {
          "mode": 1,
          "attributes": {
            "POSITION": 0,
            "NORMAL": 1
          },
          "material": 0
        }
      ]
    },
    {
      "primitives": [
        {
          "mode": 1,
          "attributes": {
            "POSITION": 2,
            "NORMAL": 3
          },
          "material": 1
        }
      ]
    },
    {
      "primitives": [
        {
          "mode": 1,
          "attributes": {
            "POSITION": 4,
            "NORMAL": 5
          },
          "material": 2
        }
      ]
    },
    {
      "primitives": [
        {
          "mode": 1,
          "attributes": {
            "POSITION": 6,
            "NORMAL": 7
          },
          "material": 3
        }
      ]
    },
    {
      "primitives": [
        {
          "mode": 1,
          "attributes": {
            "POSITION": 8,
            "NORMAL": 9
          },
          "material": 4
        }
      ]
    },
    {
      "primitives": [
        {
          "mode": 1,
          "attributes": {
            "POSITION": 10,
            "NORMAL": 11
          },
          "material": 5
        }
      ]
    },
    {
      "primitives": [
        {
          "mode": 4,
          "attributes": {
            "POSITION": 12
          },
          "indices": 13,
          "material": 6
        }
      ]
    },
    {
      "primitives": [
        {
          "mode": 4,
          "attributes": {
            "POSITION": 14,
            "TEXCOORD_0": 15
          },
          "indices": 16,
          "material": 7
        }
      ]
    },
    {
      "primitives": [
        {
          "mode": 4,
          "attributes": {
            "POSITION": 17,
            "TEXCOORD_0": 18
          },
          "indices": 19,
          "material": 8
        }
      ]
    },
    {
      "primitives": [
        {
          "mode": 4,
          "attributes": {
            "POSITION": 20,
            "TEXCOORD_0": 21
          },
          "indices": 22,
          "material": 9
        }
      ]
    },
    {
      "primitives": [
        {
          "mode": 4,
          "attributes": {
            "POSITION": 23,
            "TEXCOORD_0": 24
          },
          "indices": 25,
          "material": 10
        }
      ]
    },
    {
      "primitives": [
        {
          "mode": 4,
          "attributes": {
            "POSITION": 26,
            "TEXCOORD_0": 27
          },
          "indices": 28,
          "material": 11
        }
      ]
    },
    {
      "primitives": [
        {
          "mode": 4,
          "attributes": {
            "POSITION": 29,
            "TEXCOORD_0": 30
          },
          "indices": 31,
          "material": 12
        }
      ]
    }
  ],
  "textures": [
    {
      "sampler": 0,
      "source": 0
    },
    {
      "sampler": 1,
      "source": 1
    },
    {
      "sampler": 2,
      "source": 2
    },
    {
      "sampler": 3,
      "source": 3
    },
    {
      "sampler": 4,
      "source": 4
    },
    {
      "sampler": 5,
      "source": 5
    }
  ],
  "samplers": [
    {
      "magFilter": 9729,
      "minFilter": 9987,
      "wrapS": 10497,
      "wrapT": 10497
    },
    {
      "magFilter": 9729,
      "minFilter": 9987,
      "wrapS": 10497,
      "wrapT": 10497
    },
    {
      "magFilter": 9729,
      "minFilter": 9987,
      "wrapS": 10497,
      "wrapT": 10497
    },
    {
      "magFilter": 9729,
      "minFilter": 9987,
      "wrapS": 10497,
      "wrapT": 10497
    },
    {
      "magFilter": 9729,
      "minFilter": 9987,
      "wrapS": 10497,
      "wrapT": 10497
    },
    {
      "magFilter": 9729,
      "minFilter": 9987,
      "wrapS": 10497,
      "wrapT": 10497
    }
  ],
  "images": [
    {
      "mimeType": "image/jpeg",
      "uri": "data:image/jpeg;base64,"
    },
    {
      "mimeType": "image/jpeg",
      "uri": "data:image/jpeg;base64,"
    },
    {
      "mimeType": "image/jpeg",
      "uri": "data:image/jpeg;base64,"
    },
    {
      "mimeType": "image/jpeg",
      "uri": "data:image/jpeg;base64,"
    },
    {
      "mimeType": "image/jpeg",
      "uri": "data:image/jpeg;base64,"
    },
    {
      "mimeType": "image/jpeg",
      "uri": "data:image/jpeg;base64,"
    }
  ],
  "extensionsUsed": [
    "KHR_materials_unlit"
  ]
}